<svg width="43" height="43" viewBox="0 0 43 43" fill="none" xmlns="http://www.w3.org/2000/svg">
<g clip-path="url(#clip0_2860_1210)">
<path fill-rule="evenodd" clip-rule="evenodd" d="M21.5 3.87239C27.2453 3.87239 27.9237 3.89867 30.1836 3.999C32.2834 4.09217 33.4182 4.44333 34.1731 4.73717C35.1716 5.12417 35.8954 5.59478 36.6432 6.34011C37.3981 7.095 37.8615 7.80928 38.2557 8.81022C38.5495 9.56511 38.9031 10.7094 38.9938 12.7997C39.0942 15.0667 39.1204 15.7476 39.1204 21.4833C39.1204 27.219 39.0942 27.907 38.9938 30.1669C38.9007 32.2667 38.5495 33.4014 38.2557 34.1563C37.9113 35.0885 37.3638 35.9323 36.6527 36.6264C35.8978 37.3813 35.1836 37.8448 34.1826 38.2389C33.4277 38.5328 32.2834 38.8863 30.1932 38.9771C27.9261 39.0774 27.2453 39.1037 21.5096 39.1037C15.7738 39.1037 15.0858 39.0774 12.8259 38.9771C10.7261 38.8839 9.59139 38.5328 8.8365 38.2389C7.90435 37.8946 7.06057 37.347 6.36639 36.636C5.6527 35.9421 5.10195 35.0985 4.75389 34.1659C4.46006 33.411 4.1065 32.2667 4.01572 30.1764C3.91539 27.9094 3.88911 27.2286 3.88911 21.4928C3.88911 15.7571 3.91539 15.0691 4.01572 12.8092C4.10889 10.7094 4.46006 9.57467 4.75389 8.81978C5.14089 7.82122 5.6115 7.09739 6.35683 6.34967C7.11172 5.59478 7.826 5.13133 8.82694 4.73717C9.58183 4.44333 10.7261 4.08978 12.8164 3.999C15.0763 3.89867 15.7547 3.87239 21.5 3.87239ZM21.5 0C15.6639 0 14.9329 0.0262778 12.6396 0.126611C10.3558 0.226944 8.78394 0.597222 7.42467 1.12517C5.987 1.6649 4.68544 2.51385 3.612 3.612C2.51563 4.68411 1.66687 5.98292 1.12517 7.4175C0.597222 8.78633 0.226944 10.3487 0.126611 12.6324C0.0262778 14.9329 0 15.6639 0 21.5C0 27.3361 0.0262778 28.0671 0.126611 30.3604C0.226944 32.6442 0.597222 34.2161 1.12517 35.5753C1.6649 37.013 2.51385 38.3146 3.612 39.388C4.68446 40.4816 5.98338 41.3272 7.4175 41.8653C8.78633 42.3932 10.3487 42.7635 12.6324 42.8638C14.9258 42.9642 15.6568 42.9904 21.4928 42.9904C27.3289 42.9904 28.0599 42.9642 30.3532 42.8638C32.637 42.7635 34.2089 42.3932 35.5682 41.8653C37.0016 41.3258 38.3002 40.4804 39.3737 39.388C40.5681 38.1959 41.3063 36.9943 41.8509 35.5825C42.3789 34.2137 42.7492 32.6513 42.8495 30.3676C42.9498 28.0742 42.9761 27.3432 42.9761 21.5072C42.9761 15.6711 42.9498 14.9401 42.8495 12.6468C42.7492 10.363 42.3789 8.79111 41.8509 7.43183C41.3332 5.98667 40.4915 4.6792 39.3904 3.60961C38.3179 2.51597 37.019 1.67041 35.5849 1.13233C34.2161 0.604389 32.6537 0.234111 30.3699 0.133778C28.0694 0.0238889 27.3384 0 21.5 0ZM21.5 10.4562C18.5714 10.4574 15.7631 11.6214 13.6922 13.6922C11.6214 15.7631 10.4574 18.5714 10.4562 21.5C10.4574 24.4286 11.6214 27.2369 13.6922 29.3078C15.7631 31.3786 18.5714 32.5426 21.5 32.5438C24.4286 32.5426 27.2369 31.3786 29.3078 29.3078C31.3786 27.2369 32.5426 24.4286 32.5438 21.5C32.5426 18.5714 31.3786 15.7631 29.3078 13.6922C27.2369 11.6214 24.4286 10.4574 21.5 10.4562ZM21.5 28.6643C20.548 28.6817 19.6021 28.5092 18.7175 28.1569C17.8329 27.8046 17.0274 27.2796 16.348 26.6125C15.6686 25.9454 15.129 25.1496 14.7606 24.2716C14.3922 23.3936 14.2025 22.451 14.2025 21.4988C14.2025 20.5467 14.3922 19.604 14.7606 18.726C15.129 17.848 15.6686 17.0523 16.348 16.3852C17.0274 15.7181 17.8329 15.193 18.7175 14.8407C19.6021 14.4884 20.548 14.316 21.5 14.3333C23.4007 14.3333 25.2236 15.0884 26.5676 16.4324C27.9116 17.7764 28.6667 19.5993 28.6667 21.5C28.6667 23.4007 27.9116 25.2236 26.5676 26.5676C25.2236 27.9116 23.4007 28.6667 21.5 28.6667V28.6643ZM32.981 12.5966C33.6646 12.5966 34.3202 12.325 34.8036 11.8416C35.287 11.3583 35.5586 10.7026 35.5586 10.019C35.5586 9.33537 35.287 8.67975 34.8036 8.19635C34.3202 7.71296 33.6646 7.44139 32.981 7.44139C32.2974 7.44139 31.6417 7.71296 31.1584 8.19635C30.675 8.67975 30.4034 9.33537 30.4034 10.019C30.4034 10.7026 30.675 11.3583 31.1584 11.8416C31.6417 12.325 32.2974 12.5966 32.981 12.5966Z" fill="#575757"/>
</g>
<defs>
<clipPath id="clip0_2860_1210">
<rect width="43" height="43" fill="white"/>
</clipPath>
</defs>
</svg>
