<svg width="20" height="19" viewBox="0 0 20 19" fill="none" xmlns="http://www.w3.org/2000/svg">
<path d="M7.72506 5.85233C8.05643 5.85233 8.32506 5.5837 8.32506 5.25233C8.32506 4.92096 8.05643 4.65233 7.72506 4.65233V5.85233ZM3.36821 4.65233C3.03684 4.65233 2.76821 4.92096 2.76821 5.25233C2.76821 5.5837 3.03684 5.85233 3.36821 5.85233V4.65233ZM16.65 5.85233C16.9814 5.85233 17.25 5.5837 17.25 5.25233C17.25 4.92096 16.9814 4.65233 16.65 4.65233V5.85233ZM12.0819 4.65233C11.7505 4.65233 11.4819 4.92096 11.4819 5.25233C11.4819 5.5837 11.7505 5.85233 12.0819 5.85233V4.65233ZM8.82528 4.40005H10.9743V3.20005H8.82528V4.40005ZM11.0907 4.5164V6.66544H12.2907V4.5164H11.0907ZM10.9743 6.78179H8.82528V7.98179H10.9743V6.78179ZM8.70893 6.66544V4.5164H7.50893V6.66544H8.70893ZM8.82528 6.78179C8.76102 6.78179 8.70893 6.7297 8.70893 6.66544H7.50893C7.50893 7.39244 8.09828 7.98179 8.82528 7.98179V6.78179ZM11.0907 6.66544C11.0907 6.7297 11.0386 6.78179 10.9743 6.78179V7.98179C11.7013 7.98179 12.2907 7.39244 12.2907 6.66544H11.0907ZM10.9743 4.40005C11.0386 4.40005 11.0907 4.45214 11.0907 4.5164H12.2907C12.2907 3.7894 11.7013 3.20005 10.9743 3.20005V4.40005ZM8.82528 3.20005C8.09828 3.20005 7.50893 3.7894 7.50893 4.5164H8.70893C8.70893 4.45214 8.76102 4.40005 8.82528 4.40005V3.20005ZM3.11637 12.1456H5.26542V10.9456H3.11637V12.1456ZM5.38176 12.2619V14.4109H6.58176V12.2619H5.38176ZM5.26542 14.5273H3.11637V15.7273H5.26542V14.5273ZM3.00002 14.4109V12.2619H1.80002V14.4109H3.00002ZM3.11637 14.5273C3.05212 14.5273 3.00002 14.4752 3.00002 14.4109H1.80002C1.80002 15.1379 2.38937 15.7273 3.11637 15.7273V14.5273ZM5.38176 14.4109C5.38176 14.4752 5.32967 14.5273 5.26542 14.5273V15.7273C5.99242 15.7273 6.58176 15.1379 6.58176 14.4109H5.38176ZM5.26542 12.1456C5.32967 12.1456 5.38176 12.1976 5.38176 12.2619H6.58176C6.58176 11.5349 5.99242 10.9456 5.26542 10.9456V12.1456ZM3.11637 10.9456C2.38937 10.9456 1.80002 11.5349 1.80002 12.2619H3.00002C3.00002 12.1976 3.05212 12.1456 3.11637 12.1456V10.9456ZM14.7346 12.1456H16.8837V10.9456H14.7346V12.1456ZM17 12.2619V14.4109H18.2V12.2619H17ZM16.8837 14.5273H14.7346V15.7273H16.8837V14.5273ZM14.6183 14.4109V12.2619H13.4183V14.4109H14.6183ZM14.7346 14.5273C14.6704 14.5273 14.6183 14.4752 14.6183 14.4109H13.4183C13.4183 15.1379 14.0076 15.7273 14.7346 15.7273V14.5273ZM17 14.4109C17 14.4752 16.9479 14.5273 16.8837 14.5273V15.7273C17.6107 15.7273 18.2 15.1379 18.2 14.4109H17ZM16.8837 12.1456C16.9479 12.1456 17 12.1976 17 12.2619H18.2C18.2 11.5349 17.6107 10.9456 16.8837 10.9456V12.1456ZM14.7346 10.9456C14.0076 10.9456 13.4183 11.5349 13.4183 12.2619H14.6183C14.6183 12.1976 14.6704 12.1456 14.7346 12.1456V10.9456ZM7.72506 4.65233H3.36821V5.85233H7.72506V4.65233ZM16.65 4.65233H12.0819V5.85233H16.65V4.65233ZM3.7364 10.5774V11.5456H4.9364V10.5774H3.7364ZM15.3547 10.5774V11.5456H16.5547V10.5774H15.3547ZM4.9364 10.5774C4.9364 8.65001 5.98282 6.96635 7.5414 6.06476L6.94053 5.02603C5.0264 6.1333 3.7364 8.20433 3.7364 10.5774H4.9364ZM12.7497 6.06476C14.3082 6.96635 15.3547 8.65001 15.3547 10.5774H16.5547C16.5547 8.20433 15.2647 6.1333 13.3505 5.02603L12.7497 6.06476Z" fill="#D9D9D9"/>
</svg>
