<svg width="22" height="20" viewBox="0 0 22 20" fill="none" xmlns="http://www.w3.org/2000/svg">
<path d="M5.41167 7.96166C3.14452 8.67373 1.5 10.7918 1.5 13.2939C1.5 16.3802 4.00188 18.882 7.0881 18.882C8.65131 18.882 10.0646 18.2402 11.0788 17.2056C12.0669 16.1977 12.6762 14.817 12.6762 13.2939M16.5879 7.96166C18.8553 8.67359 20.5 10.7918 20.5 13.2941C20.5 16.3803 17.9981 18.8822 14.9119 18.8822C13.6537 18.8822 12.4926 18.4664 11.5586 17.7646M16.5879 6.5881C16.5879 9.67433 14.086 12.1762 10.9998 12.1762C7.91355 12.1762 5.41167 9.67433 5.41167 6.5881C5.41167 3.50188 7.91355 1 10.9998 1C14.086 1 16.5879 3.50188 16.5879 6.5881Z" stroke="#D9D9D9" stroke-width="1.2" stroke-linecap="round" stroke-linejoin="round"/>
</svg>
