<svg width="39" height="39" viewBox="0 0 39 39" fill="none" xmlns="http://www.w3.org/2000/svg">
<path d="M35.75 13C36.612 13 37.4386 12.6576 38.0481 12.0481C38.6576 11.4386 39 10.612 39 9.75V3.25C39 2.38805 38.6576 1.5614 38.0481 0.951903C37.4386 0.34241 36.612 0 35.75 0H29.25C28.388 0 27.5614 0.34241 26.9519 0.951903C26.3424 1.5614 26 2.38805 26 3.25V4.875H13V3.25C13 2.38805 12.6576 1.5614 12.0481 0.951903C11.4386 0.34241 10.612 0 9.75 0H3.25C2.38805 0 1.5614 0.34241 0.951903 0.951903C0.34241 1.5614 0 2.38805 0 3.25V9.75C0 10.612 0.34241 11.4386 0.951903 12.0481C1.5614 12.6576 2.38805 13 3.25 13H4.875V26H3.25C2.38805 26 1.5614 26.3424 0.951903 26.9519C0.34241 27.5614 0 28.388 0 29.25V35.75C0 36.612 0.34241 37.4386 0.951903 38.0481C1.5614 38.6576 2.38805 39 3.25 39H9.75C10.612 39 11.4386 38.6576 12.0481 38.0481C12.6576 37.4386 13 36.612 13 35.75V34.125H26V35.75C26 36.612 26.3424 37.4386 26.9519 38.0481C27.5614 38.6576 28.388 39 29.25 39H35.75C36.612 39 37.4386 38.6576 38.0481 38.0481C38.6576 37.4386 39 36.612 39 35.75V29.25C39 28.388 38.6576 27.5614 38.0481 26.9519C37.4386 26.3424 36.612 26 35.75 26H34.125V13H35.75ZM29.25 3.25H35.75V9.75H29.25V3.25ZM3.25 3.25H9.75V6.47969C9.74732 6.4931 9.74732 6.5069 9.75 6.52031V9.75H3.25V3.25ZM9.75 35.75H3.25V29.25H9.75V32.4797C9.74732 32.4931 9.74732 32.5069 9.75 32.5203V35.75ZM35.75 35.75H29.25V29.25H35.75V35.75ZM30.875 26H29.25C28.388 26 27.5614 26.3424 26.9519 26.9519C26.3424 27.5614 26 28.388 26 29.25V30.875H13V29.25C13 28.388 12.6576 27.5614 12.0481 26.9519C11.4386 26.3424 10.612 26 9.75 26H8.125V13H9.75C10.612 13 11.4386 12.6576 12.0481 12.0481C12.6576 11.4386 13 10.612 13 9.75V8.125H26V9.75C26 10.612 26.3424 11.4386 26.9519 12.0481C27.5614 12.6576 28.388 13 29.25 13H30.875V26Z" fill="#43A363"/>
</svg>
