<svg width="20" height="20" viewBox="0 0 20 20" fill="none" xmlns="http://www.w3.org/2000/svg">
<path d="M15.821 10.4884C15.9318 10.1761 15.7685 9.83307 15.4562 9.72226C15.1439 9.61144 14.8009 9.77477 14.6901 10.0871L15.821 10.4884ZM13.6457 14.8245L14.2112 15.0251L13.6457 14.8245ZM12.56 15.7645L12.6777 16.3529H12.6777L12.56 15.7645ZM3.08276 17.66L2.49229 17.5535C2.45704 17.7489 2.52079 17.9491 2.66255 18.0882C2.8043 18.2273 3.00569 18.2873 3.20043 18.2483L3.08276 17.66ZM4.81226 8.06913L5.40273 8.17561L4.81226 8.06913ZM5.81002 6.93874L5.98899 7.51143H5.98899L5.81002 6.93874ZM10.634 6.05987C10.9503 5.96103 11.1265 5.62451 11.0277 5.30822C10.9289 4.99193 10.5923 4.81566 10.276 4.9145L10.634 6.05987ZM2.82995 17.0642C2.59563 17.2986 2.59563 17.6785 2.82995 17.9128C3.06426 18.1471 3.44416 18.1471 3.67848 17.9128L2.82995 17.0642ZM7.79322 13.798C8.02753 13.5637 8.02753 13.1838 7.79322 12.9495C7.5589 12.7152 7.179 12.7152 6.94469 12.9495L7.79322 13.798ZM17.9987 6.85876L18.423 6.4345L17.9987 6.85876ZM17.9987 8.23034L17.5744 7.80608L17.9987 8.23034ZM12.5124 2.74402L12.0881 2.31976V2.31976L12.5124 2.74402ZM13.884 2.74402L13.4597 3.16829L13.884 2.74402ZM10.7979 5.83008L11.2222 5.40582L10.7979 5.83008ZM10.7979 4.4585L11.2222 4.88276V4.88276L10.7979 4.4585ZM14.9126 9.94482L14.4884 10.3691L14.9126 9.94482ZM16.2842 9.94482L16.7085 10.3691L16.2842 9.94482ZM14.6901 10.0871L13.0803 14.6238L14.2112 15.0251L15.821 10.4884L14.6901 10.0871ZM12.4423 15.1762L2.96509 17.0716L3.20043 18.2483L12.6777 16.3529L12.4423 15.1762ZM3.67324 17.7664L5.40273 8.17561L4.22178 7.96265L2.49229 17.5535L3.67324 17.7664ZM5.98899 7.51143L10.634 6.05987L10.276 4.9145L5.63106 6.36605L5.98899 7.51143ZM5.40273 8.17561C5.45923 7.86232 5.68514 7.60638 5.98899 7.51143L5.63106 6.36605C4.90064 6.59431 4.35758 7.20955 4.22178 7.96265L5.40273 8.17561ZM13.0803 14.6238C12.9796 14.9074 12.7374 15.1172 12.4423 15.1762L12.6777 16.3529C13.3869 16.211 13.9693 15.7067 14.2112 15.0251L13.0803 14.6238ZM3.67848 17.9128L7.79322 13.798L6.94469 12.9495L2.82995 17.0642L3.67848 17.9128ZM15.3369 9.52056L11.2222 5.40582L10.3736 6.25434L14.4884 10.3691L15.3369 9.52056ZM11.2222 4.88276L12.9366 3.16829L12.0881 2.31976L10.3736 4.03424L11.2222 4.88276ZM13.4597 3.16829L17.5744 7.28303L18.423 6.4345L14.3082 2.31976L13.4597 3.16829ZM17.5744 7.80608L15.86 9.52056L16.7085 10.3691L18.423 8.65461L17.5744 7.80608ZM17.5744 7.28303C17.7189 7.42746 17.7189 7.66164 17.5744 7.80608L18.423 8.65461C19.036 8.04154 19.036 7.04757 18.423 6.4345L17.5744 7.28303ZM12.9366 3.16829C13.0811 3.02385 13.3153 3.02385 13.4597 3.16829L14.3082 2.31976C13.6952 1.70669 12.7012 1.70669 12.0881 2.31976L12.9366 3.16829ZM11.2222 5.40582C11.0777 5.26138 11.0777 5.0272 11.2222 4.88276L10.3736 4.03424C9.76057 4.6473 9.76057 5.64128 10.3736 6.25434L11.2222 5.40582ZM14.4884 10.3691C15.1014 10.9821 16.0954 10.9821 16.7085 10.3691L15.86 9.52056C15.7155 9.66499 15.4813 9.66499 15.3369 9.52056L14.4884 10.3691ZM8.13611 10.712C8.6593 10.1888 9.50755 10.1888 10.0307 10.712L10.8793 9.86345C9.88745 8.87163 8.2794 8.87163 7.28758 9.86345L8.13611 10.712ZM10.0307 10.712C10.5539 11.2352 10.5539 12.0834 10.0307 12.6066L10.8793 13.4551C11.8711 12.4633 11.8711 10.8553 10.8793 9.86345L10.0307 10.712ZM10.0307 12.6066C9.50755 13.1298 8.6593 13.1298 8.13611 12.6066L7.28758 13.4551C8.2794 14.447 9.88745 14.447 10.8793 13.4551L10.0307 12.6066ZM8.13611 12.6066C7.61292 12.0834 7.61292 11.2352 8.13611 10.712L7.28758 9.86345C6.29576 10.8553 6.29577 12.4633 7.28758 13.4551L8.13611 12.6066Z" fill="#D9D9D9"/>
</svg>
