<svg width="39" height="39" viewBox="0 0 39 39" fill="none" xmlns="http://www.w3.org/2000/svg">
<path d="M20.394 0.222018C19.7094 -0.074006 19.2905 -0.074006 18.6059 0.222018C16.2517 1.24004 17.3602 9.90488 18.2928 15.2656C16.2582 10.219 12.6308 2.27238 10.0936 2.6489C9.35587 2.75838 8.99995 2.97929 8.5744 3.59181C7.23392 5.52126 11.7451 11.3698 15.2942 15.4614C11.0619 12.0813 5.03513 7.81112 3.16166 9.22878C2.56691 9.67883 2.36063 10.0434 2.28116 10.785C2.02404 13.1846 9.16824 16.2496 14.2825 18.1263C8.90716 17.2413 1.17986 16.3909 0.222018 18.606C-0.074006 19.2905 -0.074006 19.7095 0.222018 20.394C1.17986 22.6091 8.90716 21.7587 14.2825 20.8737C9.16824 22.7504 2.02404 25.8154 2.28116 28.215C2.36062 28.9566 2.5669 29.3212 3.16166 29.7712C5.03512 31.1889 11.0618 26.9187 15.2941 23.5386C11.745 27.6303 7.23389 33.4788 8.57437 35.4082C8.99992 36.0207 9.35585 36.2416 10.0936 36.3511C12.6308 36.7276 16.2583 28.7808 18.2928 23.7343C17.3602 29.095 16.2517 37.76 18.6059 38.778C19.2905 39.074 19.7094 39.074 20.394 38.778C22.7483 37.7599 21.6397 29.0944 20.707 23.7337C22.7415 28.7803 26.3692 36.7276 28.9065 36.3511C29.6442 36.2416 30.0001 36.0207 30.4257 35.4082C31.7662 33.4788 27.255 27.6303 23.706 23.5386C27.9383 26.9187 33.9649 31.1889 35.8384 29.7712C36.4332 29.3212 36.6394 28.9566 36.7189 28.215C36.976 25.8154 29.8319 22.7504 24.7176 20.8737C30.0929 21.7588 37.8201 22.6091 38.778 20.394C39.074 19.7095 39.074 19.2905 38.778 18.606C37.8202 16.3909 30.0929 17.2412 24.7176 18.1263C29.8319 16.2496 36.976 13.1846 36.7189 10.785C36.6394 10.0434 36.4332 9.67883 35.8384 9.22878C33.9649 7.81112 27.9382 12.0813 23.7059 15.4614C27.2549 11.3698 31.7661 5.52126 30.4257 3.59181C30.0001 2.97929 29.6442 2.75838 28.9064 2.6489C26.3692 2.27236 22.7416 10.2196 20.7071 15.2661C21.6397 9.90547 22.7483 1.24007 20.394 0.222018Z" fill="#F4ADB3"/>
</svg>
